<?xml version="1.0" encoding="utf-8"?>
<!-- Generator: Adobe Illustrator 16.0.0, SVG Export Plug-In . SVG Version: 6.00 Build 0)  -->
<!DOCTYPE svg PUBLIC "-//W3C//DTD SVG 1.1//EN" "http://www.w3.org/Graphics/SVG/1.1/DTD/svg11.dtd">
<svg version="1.1" id="Layer_1" xmlns="http://www.w3.org/2000/svg" xmlns:xlink="http://www.w3.org/1999/xlink" x="0px" y="0px"
	 width="447.421px" height="447.605px" viewBox="0 0 447.421 447.605" enable-background="new 0 0 447.421 447.605"
	 xml:space="preserve">
<circle fill="#FFFFFF" cx="223.71" cy="223.804" r="220.09"/>
<path fill="#EA4E22" d="M223.634,3.713c-121.55,0-219.923,98.728-219.923,220.219c0,85.529,48.918,159.674,120.286,195.875V197.279
	h48.076v240.34c16.625,4.025,33.749,6.274,51.562,6.274h2.26V234.609H189.81v-37.33h36.085v-32.157c0-40.224,0-94.535,71.75-94.535
	c12.793,0,18.885,1.708,25.666,3.66v41.984c-5.441-1.791-11.57-3.716-19.537-3.716c-29.844,0-29.844,23.234-29.844,55v29.765h49.381
	v37.33H273.93v203.309c97.226-22.766,169.781-109.867,169.781-213.985C443.709,102.441,345.221,3.713,223.634,3.713
	 M172.073,144.283h-48.076v-62.69h48.076V144.283z"/>
</svg>
