<?xml version="1.0" encoding="UTF-8"?>
<!-- Generator: Adobe Illustrator 16.0.0, SVG Export Plug-In . SVG Version: 6.00 Build 0)  -->
<!DOCTYPE svg PUBLIC "-//W3C//DTD SVG 1.1//EN" "http://www.w3.org/Graphics/SVG/1.1/DTD/svg11.dtd">
<svg version="1.1" id="Layer_1" xmlns="http://www.w3.org/2000/svg" xmlns:xlink="http://www.w3.org/1999/xlink" x="0px" y="0px" width="115px" height="50px" viewBox="0 0 115 50" enable-background="new 0 0 115 50" xml:space="preserve">
<path fill="#2D2D2E" d="M13.662,11.649H9.231V5.872h4.431V11.649z M13.662,44.634H9.231V16.53h4.431V44.634z"/>
<path fill="#2D2D2E" d="M23.03,44.634h-4.432V19.952h-3.31V16.53h3.31v-2.973c0-3.703,0-8.695,6.618-8.695  c1.18,0,1.74,0.168,2.357,0.336v3.871c-0.506-0.168-1.066-0.337-1.796-0.337c-2.748,0-2.748,2.132-2.748,5.049v2.749h4.544v3.422  H23.03V44.634z"/>
<path fill="#EA4E22" d="M100.91,4.862c-4.594,0-8.318,3.726-8.318,8.32c0,3.237,1.852,6.037,4.552,7.412v-8.416h1.82v9.085  c0.626,0.15,1.274,0.239,1.946,0.239c0.027,0,0.055-0.004,0.082-0.005v-7.914h-1.36v-1.406h1.36v-1.221c0-1.521,0-3.572,2.719-3.572  c0.484,0,0.715,0.068,0.967,0.138v1.59c-0.207-0.068-0.438-0.138-0.736-0.138c-1.129,0-1.129,0.876-1.129,2.074v1.129h1.865v1.406  h-1.865v7.691c3.678-0.861,6.419-4.153,6.419-8.093C109.231,8.588,105.506,4.862,100.91,4.862z M98.964,10.173h-1.82V7.8h1.82  V10.173z"/>
<path fill="#2D2D2E" d="M44.064,38.688c0,4.375,0.168,4.992,1.347,5.946h-5.497v-3.366c-0.617,1.233-1.963,3.871-5.777,3.871  c-1.291,0-2.413-0.281-3.366-0.842c-2.637-1.571-2.917-4.263-2.917-6.339c0-4.544,1.795-6.002,4.712-8.022  c4.263-2.86,4.712-3.14,7.067-5.328c0-2.299,0-4.936-3.422-4.936c-3.365,0-3.365,2.355-3.365,4.039c0,0.842,0.056,1.458,0.112,2.076  h-4.095c-0.057-1.179-0.057-4.207,0.393-5.61c1.402-4.095,6.17-4.095,7.404-4.095c2.019,0,4.039,0.337,5.665,2.075  c1.739,1.796,1.739,3.31,1.739,7.125V38.688z M39.633,28.646c-1.291,1.234-1.514,1.403-3.702,3.029  c-2.019,1.571-3.533,2.749-3.533,6.002c0,1.234,0,4.151,3.028,4.151c0.842,0,1.684-0.28,2.412-0.841  c1.627-1.234,1.795-3.142,1.795-5.386V28.646z"/>
<path fill="#2D2D2E" d="M62.912,44.634H58.48V27.805c0-5.441,0-8.189-3.479-8.189c-3.758,0-3.758,3.702-3.758,8.189v16.829h-4.432  V5.03h4.432v14.08c0.898-1.122,2.299-3.029,5.608-3.029c1.907,0,3.535,0.785,4.544,2.02c1.516,1.852,1.516,4.599,1.516,7.236V44.634  z"/>
<path fill="#2D2D2E" d="M75.533,19.952h-4.096V37.79c0,1.795,0.168,3.59,2.58,3.59c0.729,0,1.122-0.112,1.57-0.225v3.646  c-0.617,0.168-1.291,0.337-2.469,0.337c-3.926,0-5.16-1.347-5.721-2.638c-0.561-1.289-0.561-1.851-0.561-7.012V19.952h-3.365V16.53  h3.477V9.013h4.488v7.517h4.096V19.952z"/>
<path fill="#2D2D2E" d="M91.014,40.146c-0.449,1.795-1.572,4.992-7.404,4.992c-2.749,0-5.441-0.898-6.731-3.255  c-1.066-1.907-1.122-3.533-1.122-10.545c0-3.87,0.111-8.303,0.617-10.266c0.448-1.683,1.684-4.992,7.404-4.992  c3.422,0,5.721,1.234,6.9,3.646c0.953,1.964,0.953,2.804,0.953,11.22C91.631,33.077,91.518,38.238,91.014,40.146z M86.861,23.767  c-0.056-1.627-0.393-3.984-3.028-3.984c-3.365,0-3.365,2.749-3.365,8.527c0,0.842,0,6.283,0.057,8.19  c0.056,2.468,0.112,5.16,3.028,5.16c3.365,0,3.365-2.973,3.365-10.771C86.918,28.533,86.918,25.225,86.861,23.767z"/>
</svg>