<?xml version="1.0" encoding="UTF-8"?>
<!-- Generator: Adobe Illustrator 16.0.0, SVG Export Plug-In . SVG Version: 6.00 Build 0)  -->
<!DOCTYPE svg PUBLIC "-//W3C//DTD SVG 1.1//EN" "http://www.w3.org/Graphics/SVG/1.1/DTD/svg11.dtd">
<svg version="1.1" id="Layer_1" xmlns="http://www.w3.org/2000/svg" xmlns:xlink="http://www.w3.org/1999/xlink" x="0px" y="0px" width="115px" height="50px" viewBox="0 0 115 50" enable-background="new 0 0 115 50" xml:space="preserve">
<path fill="#FFFFFF" d="M6.381,9.271H1.458V2.854h4.923V9.271z M6.381,45.919H1.458V14.694h4.923V45.919z"/>
<path fill="#FFFFFF" d="M16.789,45.919h-4.924V18.497H8.188v-3.803h3.678v-3.302c0-4.115,0-9.661,7.353-9.661  c1.311,0,1.933,0.187,2.62,0.374v4.3c-0.562-0.187-1.185-0.375-1.997-0.375c-3.053,0-3.053,2.369-3.053,5.61v3.054h5.049v3.803  h-5.048V45.919z"/>
<path fill="#EA4E22" d="M103.316,1.731c-5.103,0-9.241,4.14-9.241,9.245c0,3.596,2.057,6.707,5.058,8.234V9.86h2.021v10.093  c0.695,0.167,1.416,0.266,2.162,0.266c0.031,0,0.062-0.005,0.092-0.006V11.42h-1.512V9.858h1.512V8.502c0-1.69,0-3.969,3.021-3.969  c0.538,0,0.794,0.077,1.074,0.154v1.767c-0.23-0.075-0.486-0.153-0.818-0.153c-1.254,0-1.254,0.974-1.254,2.304v1.254h2.072v1.562  h-2.072v8.545c4.087-0.957,7.133-4.614,7.133-8.992C112.562,5.871,108.424,1.731,103.316,1.731z M101.154,7.632h-2.021V4.995h2.021  V7.632z"/>
<path fill="#FFFFFF" d="M40.159,39.313c0,4.86,0.186,5.546,1.496,6.605h-6.107V42.18c-0.686,1.37-2.18,4.301-6.418,4.301  c-1.435,0-2.681-0.312-3.74-0.936c-2.93-1.745-3.241-4.735-3.241-7.043c0-5.048,1.994-6.668,5.235-8.912  c4.736-3.178,5.235-3.488,7.852-5.92c0-2.554,0-5.484-3.802-5.484c-3.738,0-3.738,2.617-3.738,4.488c0,0.936,0.062,1.62,0.124,2.307  H23.27c-0.063-1.311-0.063-4.675,0.437-6.234c1.558-4.549,6.855-4.549,8.226-4.549c2.244,0,4.488,0.374,6.294,2.306  c1.932,1.995,1.932,3.677,1.932,7.916V39.313z M35.236,28.157c-1.435,1.37-1.682,1.558-4.113,3.364  c-2.244,1.746-3.926,3.055-3.926,6.669c0,1.371,0,4.611,3.364,4.611c0.936,0,1.871-0.311,2.68-0.935  c1.808-1.371,1.995-3.49,1.995-5.983V28.157z"/>
<path fill="#FFFFFF" d="M61.1,45.919h-4.923V27.222c0-6.045,0-9.098-3.866-9.098c-4.175,0-4.175,4.113-4.175,9.098v18.697h-4.924  V1.917h4.924v15.644c0.998-1.247,2.554-3.365,6.23-3.365c2.119,0,3.928,0.872,5.048,2.244c1.685,2.058,1.685,5.11,1.685,8.04  L61.1,45.919L61.1,45.919z"/>
<path fill="#FFFFFF" d="M75.122,18.497h-4.55v19.819c0,1.993,0.187,3.987,2.866,3.987c0.809,0,1.245-0.124,1.744-0.25v4.052  c-0.685,0.186-1.435,0.375-2.744,0.375c-4.362,0-5.732-1.497-6.356-2.932c-0.622-1.433-0.622-2.057-0.622-7.791V18.497h-3.739  v-3.803h3.863V6.344h4.986v8.351h4.551L75.122,18.497L75.122,18.497z"/>
<path fill="#FFFFFF" d="M92.321,40.934c-0.499,1.995-1.746,5.547-8.226,5.547c-3.053,0-6.045-0.998-7.479-3.617  c-1.185-2.118-1.247-3.926-1.247-11.717c0-4.3,0.124-9.224,0.686-11.405c0.499-1.87,1.872-5.546,8.226-5.546  c3.804,0,6.357,1.371,7.667,4.05c1.059,2.182,1.059,3.115,1.059,12.465C93.007,33.079,92.882,38.813,92.321,40.934z M87.708,22.736  c-0.062-1.808-0.437-4.427-3.364-4.427c-3.738,0-3.738,3.054-3.738,9.475c0,0.935,0,6.979,0.063,9.099  c0.062,2.741,0.123,5.733,3.363,5.733c3.739,0,3.739-3.303,3.739-11.968C87.771,28.031,87.771,24.355,87.708,22.736z"/>
</svg>